Coordinates
version=1
nRows=9
nColumns=26
inDegrees=yes

Units are S.I. units (second, meters, Newtons, ...)
Angles are in degrees.

endheader
time	pelvis_tilt	pelvis_list	pelvis_rotation	pelvis_tx	pelvis_ty	pelvis_tz	hip_flexion_r	hip_adduction_r	hip_rotation_r	knee_angle_r	knee_angle_r_beta	ankle_angle_r	subtalar_angle_r	mtp_angle_r	hip_flexion_l	hip_adduction_l	hip_rotation_l	knee_angle_l	knee_angle_l_beta	ankle_angle_l	subtalar_angle_l	mtp_angle_l	lumbar_extension	lumbar_bending	lumbar_rotation
      0.26666667	      7.24180866	      0.46782350	     -2.25611349	      0.29813984	      1.01538459	      0.11028311	     10.04497285	     -7.51526012	     -4.73313345	     60.28942676	     60.28942676	      1.93931926	      0.00000000	      0.00000000	      1.95744502	      0.48156277	    -11.58694874	     14.35497266	     14.35497266	      5.00902541	      0.00000000	      0.00000000	    -19.62727590	     -2.02124611	      2.65567386
      0.27500000	      7.12130199	      0.37920192	     -2.19435655	      0.30575019	      1.01605568	      0.10970574	     10.99000629	     -7.26069142	     -4.97929276	     59.31212662	     59.31212662	      2.65167727	      0.00000000	      0.00000000	      1.36266465	      0.50944933	    -11.41918811	     13.91533381	     13.91533381	      5.23665081	      0.00000000	      0.00000000	    -19.55834187	     -1.92146244	      2.57936831
      0.28333333	      6.97351344	      0.28374534	     -2.13958574	      0.31325205	      1.01664068	      0.10911149	     11.95479222	     -7.02652982	     -5.25616925	     58.19582427	     58.19582427	      3.07418566	      0.00000000	      0.00000000	      0.88775123	      0.50275312	    -11.19314190	     13.64447152	     13.64447152	      5.52725148	      0.00000000	      0.00000000	    -19.47228072	     -1.80606096	      2.51610079
      0.29166667	      6.89071412	      0.23226933	     -2.15065259	      0.32080371	      1.01721347	      0.10864169	     12.80566549	     -6.80776771	     -5.43848729	     56.92552959	     56.92552959	      3.46095113	      0.00000000	      0.00000000	      0.19987567	      0.59980944	    -11.08404797	     13.05962541	     13.05962541	      5.59464999	      0.00000000	      0.00000000	    -19.45488097	     -1.76836421	      2.50308871
      0.30000000	      6.75855230	      0.20379558	     -2.21641653	      0.32816505	      1.01752529	      0.10813343	     13.74103015	     -6.60533270	     -5.53807721	     55.58234560	     55.58234560	      3.73834820	      0.00000000	      0.00000000	     -0.37330933	      0.69456776	    -10.97131314	     12.61986574	     12.61986574	      5.79560854	      0.00000000	      0.00000000	    -19.39887654	     -1.74971833	      2.51706832
      0.30833333	      6.62073547	      0.17964884	     -2.02248424	      0.33561479	      1.01771907	      0.10771185	     14.53153478	     -6.39430003	     -5.81254533	     54.06137894	     54.06137894	      3.87905942	      0.00000000	      0.00000000	     -0.88092954	      0.75351255	    -10.56598279	     12.27610259	     12.27610259	      6.06963723	      0.00000000	      0.00000000	    -19.33191983	     -1.71308484	      2.30259934
      0.31666667	      6.68700130	      0.13280377	     -1.91535623	      0.34376161	      1.01840255	      0.10727514	     14.91797467	     -6.17369590	     -6.13314580	     52.19124243	     52.19124243	      3.96767540	      0.00000000	      0.00000000	     -1.76839757	      0.82677370	    -10.35964459	     11.69987385	     11.69987385	      6.17301981	      0.00000000	      0.00000000	    -19.43129107	     -1.65481586	      2.17583203
      0.32500000	      6.62247762	      0.08816679	     -1.78736239	      0.35154612	      1.01865765	      0.10673756	     15.43227322	     -5.93905436	     -6.33801571	     50.24345851	     50.24345851	      4.04144040	      0.00000000	      0.00000000	     -2.43113513	      0.88914830	    -10.06404338	     11.25223850	     11.25223850	      6.37744407	      0.00000000	      0.00000000	    -19.41151773	     -1.57819256	      2.03244440
      0.33333333	      6.52639247	      0.11851926	     -1.73172756	      0.35918054	      1.01862409	      0.10622304	     16.01399802	     -5.76106317	     -6.45252526	     48.26897713	     48.26897713	      4.11826657	      0.00000000	      0.00000000	     -3.06597480	      1.03378672	     -9.84081845	     10.78313019	     10.78313019	      6.59533079	      0.00000000	      0.00000000	    -19.38168921	     -1.57247619	      1.92227446
